<svg width="20" height="16" viewBox="0 0 20 16" fill="none" xmlns="http://www.w3.org/2000/svg">
<path d="M17.875 6.6L19.4 5.1C19.7 4.8 19.7 4.325 19.4 4.05C19.1 3.75 18.625 3.75 18.35 4.05L16.775 5.575C16.775 5.575 16.775 5.6 16.75 5.6C16.1 5.1 15.375 4.6 14.55 4.175C14.575 4.15 14.575 4.125 14.6 4.1L15.475 2.05C15.65 1.675 15.475 1.225 15.075 1.075C14.7 0.9 14.25 1.075 14.1 1.475L13.225 3.525C13.2 3.525 13.2 3.575 13.175 3.6C12.4 3.35 11.575 3.175 10.7 3.1C10.725 3.05 10.725 2.975 10.725 2.925V0.75C10.725 0.325 10.4 0 9.975 0C9.55 0 9.225 0.325 9.225 0.75V2.925C9.225 2.975 9.225 3.05 9.25 3.1C8.375 3.175 7.55 3.35 6.8 3.6C6.8 3.575 6.775 3.525 6.775 3.5L5.9 1.45C5.725 1.075 5.3 0.9 4.925 1.05C4.55 1.225 4.375 1.65 4.525 2.025L5.4 4.075C5.4 4.1 5.425 4.125 5.45 4.15C4.625 4.575 3.875 5.075 3.225 5.575L3.2 5.55L1.6 4C1.3 3.7 0.825 3.725 0.55 4C0.25 4.3 0.275 4.775 0.55 5.05L2.1 6.575C1.275 7.4 0.7 8.15 0.4 8.6C0.160899 8.94371 0.167472 9.40158 0.41634 9.73828L0.425 9.75C1.6 11.375 4.9 15.075 9.95 15.1C9.95 15.1 9.95 15.1 9.975 15.1C15.3 15.1 18.675 11.025 19.575 9.775L19.5837 9.76328C19.8325 9.42658 19.8391 8.96871 19.6 8.625C19.275 8.175 18.7 7.425 17.875 6.6ZM9.975 13.1C7.18582 13.1 5.02438 11.684 3.60222 10.3467C2.91732 9.70268 2.90112 8.63375 3.57067 7.97378C4.92847 6.63541 7.11492 5.09378 9.95 5.075C9.975 5.075 10 5.075 10.025 5.075C12.8471 5.075 15.0236 6.59608 16.4129 7.96399C17.0888 8.62952 17.0745 9.71 16.3798 10.3559C14.9811 11.6564 12.7965 13.1 9.975 13.1Z" fill="#202228"/>
</svg>
