<svg width="22" height="10" viewBox="0 0 22 10" fill="none" xmlns="http://www.w3.org/2000/svg">
<path d="M21.7281 2.52889L19.2108 0.248698C19.1522 0.198027 19.0853 0.147356 19.01 0.113576C18.6839 -0.0891079 18.249 -0.0131016 17.9981 0.282478C17.1785 1.25367 14.2345 4.43749 10.9895 4.43749C7.73619 4.43749 4.80064 1.26212 3.98103 0.282478C3.84721 0.122021 3.65485 0.020679 3.4374 0.00378869C3.22832 -0.0131016 3.01923 0.0544596 2.86033 0.189582C2.83524 0.206472 2.81851 0.223362 2.79342 0.240253L0.276042 2.52044C-0.0501305 2.81602 -0.0919475 3.31429 0.175681 3.64365C0.326222 3.82944 0.552034 3.93923 0.786209 3.93923C0.978567 3.93923 1.17092 3.86322 1.3131 3.73654L3.12796 2.09818C3.22832 2.00529 3.37886 2.01373 3.47922 2.11508C4.00612 2.67245 4.56646 3.18761 5.12681 3.64365C5.22717 3.7281 5.25226 3.87167 5.17699 3.98145L3.7134 6.19408C3.47086 6.56567 3.57122 7.06393 3.93084 7.30884C4.06466 7.39329 4.2152 7.44396 4.3741 7.44396C4.64173 7.44396 4.88427 7.30884 5.03481 7.08927L6.48168 4.89353C6.55695 4.78374 6.69913 4.74996 6.81622 4.81752C7.84491 5.40868 8.86525 5.78871 9.86885 5.95762C9.99431 5.97451 10.0863 6.08429 10.0863 6.21097V8.60095C10.0863 9.04854 10.4292 9.42013 10.8557 9.42857C10.8641 9.42857 10.8725 9.42857 10.8808 9.42857C11.0899 9.42857 11.2823 9.35256 11.4328 9.20055C11.5917 9.04854 11.6753 8.84586 11.6753 8.62628V6.22786C11.6753 6.10118 11.7673 5.9914 11.9012 5.97451C12.8462 5.84783 13.8247 5.51847 14.7949 5.00331C14.912 4.93575 15.0625 4.97798 15.1294 5.09621L16.4592 7.31728C16.6014 7.55375 16.8607 7.70576 17.1366 7.70576C17.3123 7.70576 17.4795 7.64665 17.6217 7.53686C17.9395 7.29195 18.0232 6.82747 17.8057 6.47277L16.4592 4.21792C16.3923 4.10813 16.4174 3.96456 16.5261 3.88856C17.2036 3.3734 17.8726 2.76535 18.5082 2.09818C18.6002 1.99684 18.7591 1.99684 18.8595 2.08129L20.6827 3.73654C20.8249 3.87167 21.0173 3.93923 21.2096 3.93923C21.4438 3.93923 21.6696 3.82944 21.8201 3.64365C22.0961 3.33118 22.046 2.82447 21.7281 2.52889Z" fill="#A2A6AF"/>
</svg>
