<svg width="22" height="29" viewBox="0 0 22 29" fill="none" xmlns="http://www.w3.org/2000/svg">
<path d="M15.3656 3.98386C15.493 4.11567 15.5922 4.27215 15.6569 4.44367C15.7216 4.6152 15.7506 4.79815 15.742 4.98129V17.2594C15.758 18.5935 15.4189 19.9078 14.7592 21.0675C14.1252 22.1858 13.2053 23.1154 12.0936 23.761C10.9521 24.4209 9.65368 24.7605 8.33529 24.7438C7.0093 24.7583 5.7034 24.419 4.55211 23.761C3.43012 23.1239 2.50336 22.1926 1.87181 21.0675C1.2203 19.9051 0.88592 18.5918 0.902212 17.2594C0.884448 15.9351 1.19438 14.6269 1.80443 13.4513C2.37164 12.3493 3.22838 11.4227 4.28262 10.771C5.33951 10.123 6.55808 9.78683 7.79777 9.80144C8.79268 9.79364 9.77658 10.01 10.6764 10.4344C11.5763 10.8589 12.369 11.4805 12.9958 12.2533V4.98129C12.9878 4.79708 13.0183 4.61323 13.0854 4.44148C13.1525 4.26974 13.2547 4.11388 13.3854 3.98386C13.6583 3.74152 14.0105 3.60767 14.3755 3.60767C14.7404 3.60767 15.0927 3.74152 15.3656 3.98386ZM10.7739 21.6651C11.4994 21.2272 12.0907 20.5985 12.4832 19.8474C12.9028 19.0501 13.1158 18.1603 13.1027 17.2594C13.1163 16.3636 12.9032 15.4789 12.4832 14.6875C12.0847 13.9357 11.4868 13.3081 10.7551 12.8738C10.0234 12.4395 9.18614 12.2152 8.33529 12.2254C7.47725 12.2145 6.63319 12.4432 5.89812 12.886C5.17324 13.3235 4.57816 13.9463 4.17423 14.6904C3.74537 15.478 3.52646 16.3627 3.53858 17.2594C3.52614 18.1609 3.74392 19.0507 4.1713 19.8445C4.57187 20.5945 5.16744 21.2225 5.89519 21.6621C6.63026 22.1049 7.47432 22.3337 8.33236 22.3227C9.19157 22.3351 10.0372 22.1073 10.7739 21.6651Z" fill="white"/>
<path d="M1.95825 23.8767V19.4242L6.47962 19.969L5.2332 20.905C5.2332 20.905 10.5689 25.6079 14.7593 21.0675C12.8245 24.7438 6.73153 26.538 3.04209 22.6786L1.95825 23.8767Z" fill="#2EC9F0"/>
<path d="M15.723 5.98163H16.9079L15.6571 3.93112L14.4063 1.88062L13.1555 3.93112L11.9047 5.98163H13.1027C14.7593 6.42102 15.7391 14.3872 15.7391 17.0749L15.723 5.98163Z" fill="#2EC9F0"/>
</svg>
