<svg width="24" height="24" viewBox="0 0 24 24" fill="none" xmlns="http://www.w3.org/2000/svg">
<rect width="24" height="24" rx="3" fill="#2EBDD8"/>
<path d="M10.9999 18H12.9999C13.4809 18 13.9999 17.631 13.9999 16.82V15.5C13.9999 14.914 14.2529 14.378 14.6759 14.067C15.8459 13.205 16.5279 11.828 16.4989 10.384C16.4529 8.00301 14.4659 6.03501 12.0669 6.00001C10.8069 5.99801 9.69587 6.44301 8.82987 7.29801C7.97287 8.14401 7.49987 9.27201 7.49987 10.473C7.49987 11.874 8.17487 13.213 9.30687 14.054C9.73987 14.377 9.99987 14.92 9.99987 15.507V17C9.99987 17.552 10.4479 18 10.9999 18ZM12.0019 7.00001C12.0189 7.00001 12.0349 7.00001 12.0529 7.00001C13.8859 7.02701 15.4649 8.58601 15.4989 10.404C15.5209 11.524 14.9919 12.592 14.0829 13.261C13.4049 13.76 12.9999 14.597 12.9999 15.5V16.82C12.9999 16.969 12.9639 17.018 12.9639 17.018L10.9999 17V15.507C10.9999 14.606 10.5899 13.763 9.90287 13.251C9.01087 12.589 8.49987 11.576 8.49987 10.473C8.49987 9.54101 8.86687 8.66601 9.53287 8.01001C10.1939 7.35701 11.0689 7.00001 12.0019 7.00001Z" fill="white"/>
<path d="M10.5 16H13.5C13.776 16 14 15.776 14 15.5C14 15.224 13.776 15 13.5 15H10.5C10.224 15 10 15.224 10 15.5C10 15.776 10.224 16 10.5 16Z" fill="white"/>
</svg>
