<svg xmlns="http://www.w3.org/2000/svg" xmlns:xlink="http://www.w3.org/1999/xlink" viewBox="0 0 776.71 156.79"><defs><style>.cls-1{fill:#FFF;}.cls-2{fill:url(#Gradiente_sem_nome_35);}.cls-3{fill:url(#Gradiente_sem_nome_31);}.cls-4{fill:#2ec9f0;}</style><radialGradient id="Gradiente_sem_nome_35" cx="80.31" cy="79.71" r="52.15" gradientTransform="matrix(0.04, 1, -0.42, 0.02, 110.61, -1.78)" gradientUnits="userSpaceOnUse"><stop offset="0.61" stop-color="#2e3147" stop-opacity="0"/><stop offset="0.83" stop-color="#2d3045" stop-opacity="0.05"/><stop offset="0.91" stop-color="#2b2d3d" stop-opacity="0.25"/><stop offset="0.96" stop-color="#282630" stop-opacity="0.58"/><stop offset="1" stop-color="#231f20"/></radialGradient><radialGradient id="Gradiente_sem_nome_31" cx="1062.51" cy="-998.86" fx="1055.1966791255172" r="24.13" gradientTransform="matrix(0.22, 0.98, 1.42, -0.32, 1254.32, -1233.39)" gradientUnits="userSpaceOnUse"><stop offset="0.73" stop-color="#2e3147" stop-opacity="0"/><stop offset="0.88" stop-color="#2d3045" stop-opacity="0.05"/><stop offset="0.93" stop-color="#2b2d3d" stop-opacity="0.25"/><stop offset="0.97" stop-color="#282630" stop-opacity="0.58"/><stop offset="1" stop-color="#231f20"/></radialGradient></defs><g id="Camada_2" data-name="Camada 2"><g id="Camada_1-2" data-name="Camada 1"><path class="cls-1" d="M214.19,104.32a8.35,8.35,0,0,1-6.06,2.3H138.25a32.37,32.37,0,0,0,11.68,20.78q9.65,7.92,23.63,7.91a35.8,35.8,0,0,0,11.49-2,34.53,34.53,0,0,0,9.84-5,9.55,9.55,0,0,1,6.07-2,7.87,7.87,0,0,1,5.51,1.84,8,8,0,0,1,3.31,6.25,6.66,6.66,0,0,1-2.94,5.52A50.8,50.8,0,0,1,191.3,148a56.24,56.24,0,0,1-44.78-3.4,47.28,47.28,0,0,1-18.66-18.12,51.4,51.4,0,0,1-6.71-26.29,54.38,54.38,0,0,1,6.34-26.39,46,46,0,0,1,17.66-18.21,50.39,50.39,0,0,1,25.65-6.52q14.16,0,24.46,6.25a41.27,41.27,0,0,1,15.81,17.47q5.52,11.22,5.52,25.74A7.67,7.67,0,0,1,214.19,104.32ZM149,72.24q-8.37,7.35-10.58,19.67h61.24Q198,79.6,190.47,72.24T170.8,64.88Q157.38,64.88,149,72.24Z"/><path class="cls-1" d="M256.31,144.5a47.19,47.19,0,0,1-18.12-18.29,52.45,52.45,0,0,1-6.53-26A54.38,54.38,0,0,1,238,73.8a45.78,45.78,0,0,1,17.74-18.21,50.92,50.92,0,0,1,25.75-6.52q21.69,0,36,16.55a6.85,6.85,0,0,1,1.84,4.78c0,2.7-1.35,5-4.05,6.8a7.15,7.15,0,0,1-4.22,1.29,9.23,9.23,0,0,1-7.18-3.31,29.3,29.3,0,0,0-10-7.27,31.61,31.61,0,0,0-12.41-2.29q-14.16,0-23,9.47t-8.82,25.1a37.41,37.41,0,0,0,4.13,17.74,30.42,30.42,0,0,0,11.59,12.23,32.72,32.72,0,0,0,17,4.41q12.49,0,20.23-6.43a11.47,11.47,0,0,1,6.8-2.58,7.82,7.82,0,0,1,4.78,1.66q3.5,2.94,3.49,6.62a6.84,6.84,0,0,1-2.2,5q-13.25,12.33-33.1,12.32A51.59,51.59,0,0,1,256.31,144.5Z"/><path class="cls-1" d="M350,29.85a11.68,11.68,0,0,1-3.59-8.55A11.68,11.68,0,0,1,350,12.75a12,12,0,0,1,17.1,0,11.68,11.68,0,0,1,3.59,8.55,11.68,11.68,0,0,1-3.59,8.55,12,12,0,0,1-17.1,0Zm1.84,117.87a9.07,9.07,0,0,1-2.67-6.71V59.18a9,9,0,0,1,2.67-6.8,9.34,9.34,0,0,1,16.09,6.8V141a9.24,9.24,0,0,1-2.58,6.71,9.88,9.88,0,0,1-13.51,0Z"/><path class="cls-1" d="M415.92,147.26q-11-3.85-17.29-10.11a7.8,7.8,0,0,1-2.39-5.7,8.57,8.57,0,0,1,3.68-7.17,11.13,11.13,0,0,1,6.44-2.58,9.88,9.88,0,0,1,7,3.31q3.48,3.87,10.48,6.71a38.82,38.82,0,0,0,14.89,2.85q10.48,0,16.28-3.49t5.79-9.38q0-5.7-5.7-9.47t-19.31-6.34q-35.31-6.81-35.31-29.06a22.71,22.71,0,0,1,5.34-15.26,32.43,32.43,0,0,1,14-9.38,53.73,53.73,0,0,1,18.39-3.12,56.17,56.17,0,0,1,21.42,3.86,36.59,36.59,0,0,1,15,10.66A9.4,9.4,0,0,1,477,69.48q0,3.12-3.13,5.7a8.52,8.52,0,0,1-5.14,1.47,12.58,12.58,0,0,1-8.65-3.49,27.48,27.48,0,0,0-9.74-6,39.39,39.39,0,0,0-12.51-1.75q-8.46,0-13.88,2.85t-5.43,8a10.07,10.07,0,0,0,1.84,6.16q1.85,2.49,7,4.6a89,89,0,0,0,14.9,4.14q20,4,28.41,11.21A23.37,23.37,0,0,1,479,121a27.1,27.1,0,0,1-4.59,15.35,30.63,30.63,0,0,1-13.52,10.85q-8.92,4-21.42,4A70.62,70.62,0,0,1,415.92,147.26Z"/><path class="cls-1" d="M505.38,29.85a11.67,11.67,0,0,1-3.58-8.55,11.67,11.67,0,0,1,3.58-8.55,12,12,0,0,1,17.1,0,11.68,11.68,0,0,1,3.59,8.55,11.68,11.68,0,0,1-3.59,8.55,12,12,0,0,1-17.1,0Zm1.84,117.87a9.07,9.07,0,0,1-2.67-6.71V59.18a9,9,0,0,1,2.67-6.8,9.34,9.34,0,0,1,16.09,6.8V141a9.28,9.28,0,0,1-2.57,6.71,9.89,9.89,0,0,1-13.52,0Z"/><path class="cls-1" d="M577.56,144.6a46.07,46.07,0,0,1-18-18.12,53.19,53.19,0,0,1-6.43-26.29,53.6,53.6,0,0,1,6.43-26.48,46.13,46.13,0,0,1,18-18.12,52.61,52.61,0,0,1,26.29-6.52,51.77,51.77,0,0,1,26,6.52,47,47,0,0,1,18,18.12,53,53,0,0,1,6.53,26.48A53.19,53.19,0,0,1,648,126.48a46.34,46.34,0,0,1-17.93,18.12,56.1,56.1,0,0,1-52.5,0Zm43.12-14.44a30.47,30.47,0,0,0,11.58-12.23,37.3,37.3,0,0,0,4.14-17.74,37.88,37.88,0,0,0-4.14-17.84A30.39,30.39,0,0,0,620.68,70,34.3,34.3,0,0,0,587,70a31,31,0,0,0-11.68,12.32,37.22,37.22,0,0,0-4.23,17.84,36.66,36.66,0,0,0,4.23,17.74A31,31,0,0,0,587,130.16a34.3,34.3,0,0,0,33.65,0Z"/><path class="cls-1" d="M755.19,54.4A39,39,0,0,1,771,70.49q5.68,10.58,5.7,25.47V141.2a9.38,9.38,0,1,1-18.76,0V96q0-14.89-8-22.53T728.71,65.8a31.32,31.32,0,0,0-14.07,3.13,24.87,24.87,0,0,0-9.93,8.46,20.9,20.9,0,0,0-3.58,12V141.2a9.27,9.27,0,0,1-2.58,6.71,9.91,9.91,0,0,1-13.51,0,9.1,9.1,0,0,1-2.67-6.71v-82a9,9,0,0,1,2.67-6.8,9.34,9.34,0,0,1,16.09,6.8v2a41,41,0,0,1,14-9.1,49.06,49.06,0,0,1,40.09,2.3Z"/><path class="cls-1" d="M98.75,14.36a10.18,10.18,0,0,0-13.52,0,9.05,9.05,0,0,0-2.66,6.81V70.82A45.24,45.24,0,0,0,47.08,54.08a44.9,44.9,0,0,0-24,6.62A46.57,46.57,0,0,0,6.16,79,54.85,54.85,0,0,0,0,105a51.88,51.88,0,0,0,6.62,26,48.38,48.38,0,0,0,18.3,18.39,50.93,50.93,0,0,0,25.83,6.71,50,50,0,0,0,25.66-6.71A49.49,49.49,0,0,0,94.61,131a51.34,51.34,0,0,0,6.71-26V21.17A9.18,9.18,0,0,0,98.75,14.36ZM79.07,122.67a31.48,31.48,0,0,1-28.32,16.92,31.47,31.47,0,0,1-16.64-4.51,32.25,32.25,0,0,1-11.77-12.41A36.18,36.18,0,0,1,18,105a35.67,35.67,0,0,1,4.32-17.56A32.5,32.5,0,0,1,34.11,75.14a31.47,31.47,0,0,1,16.64-4.51A31.62,31.62,0,0,1,79.07,87.46,36.28,36.28,0,0,1,83.3,105,36.8,36.8,0,0,1,79.07,122.67Z"/><path class="cls-2" d="M83.24,27.22H82.5v2.41C94.49,39,101.26,106,101.26,106S99.31,32.12,83.24,27.22Z"/><path class="cls-3" d="M35.84,144.62s-11.2-7.51,7.61-5.8C55.83,147.17,86,135.37,94.61,131,89.82,143.41,43.16,159.75,35.84,144.62Z"/><polygon class="cls-4" points="101.19 30.9 101.19 28.03 101.19 28.03 101.19 30.9"/><path class="cls-4" d="M101.19,30.9V98.78c.09,1.86.13,3.54.13,5Z"/><path class="cls-4" d="M109.28,28l-8.54-14L92.2,0,83.66,14,75.12,28H83.3c10.42,2.8,16.91,49.12,17.89,70.75V28h8.09Z"/><path class="cls-4" d="M7.21,150.18v-30.4l30.87,3.72-8.51,6.39S66,162,94.61,131c-13.21,25.1-54.81,37.35-80,11Z"/></g></g></svg>